<?xml version="1.0" encoding="UTF-8" standalone="no"?>
<!DOCTYPE svg PUBLIC "-//W3C//DTD SVG 1.1//EN" "http://www.w3.org/Graphics/SVG/1.1/DTD/svg11.dtd">
<svg width="100%" height="100%" viewBox="0 0 23623 23623" version="1.1" xmlns="http://www.w3.org/2000/svg" xmlns:xlink="http://www.w3.org/1999/xlink" xml:space="preserve" xmlns:serif="http://www.serif.com/" style="fill-rule:evenodd;clip-rule:evenodd;stroke-linejoin:round;stroke-miterlimit:2;">
    <g transform="matrix(3.77091,0,0,3.77091,-10407.7,-9966.23)">
        <g id="New-Logo" serif:id="New Logo">
            <path d="M7440.71,7495.82C7648.78,7472.29 7782.73,7424.77 7842.56,7353.28C7896.76,7290.29 7923.85,7176.03 7923.85,7010.5L7923.85,6408.45C7923.85,6089.11 8072.54,5883.3 8369.9,5791.02C8216.09,5741.21 8103.3,5667.24 8031.52,5569.1C7959.74,5470.95 7923.85,5340.58 7923.85,5177.98L7923.85,4562.75C7923.85,4375.25 7886.5,4249.27 7811.79,4184.82C7747.34,4127.69 7622.83,4088.87 7438.26,4068.36L7438.26,3694.83C7637.48,3700.69 7795.68,3723.39 7912.87,3762.94C8030.06,3802.49 8129.66,3864.75 8211.7,3949.71C8334.74,4081.55 8396.27,4270.51 8396.27,4516.61L8396.27,5116.46C8396.27,5295.17 8442.41,5419.68 8534.69,5489.99C8615.26,5552.98 8747.83,5587.41 8932.4,5593.27L8932.4,5984.38C8725.86,5991.7 8582.3,6036.38 8501.74,6118.41C8431.42,6191.65 8396.27,6305.91 8396.27,6461.19L8396.27,7050.05C8396.27,7328.37 8318.63,7534.18 8163.36,7667.48C8084.26,7737.8 7990.51,7787.97 7882.11,7818C7773.71,7848.03 7625.76,7865.24 7438.26,7869.63L6317.88,7879.86L6115.37,7676.19C6003.97,7564.79 5908.8,7473.11 5904.16,7473.11C5899.52,7473.11 5804.94,7564.79 5693.53,7676.19L5490.44,7879.28L4302.1,7867.66C4120.14,7860.19 3974.23,7837.92 3864.36,7800.84C3747.18,7761.29 3647.57,7698.3 3565.53,7611.88C3442.49,7480.04 3380.96,7291.07 3380.96,7044.98L3380.96,6447.32C3380.96,6268.61 3334.82,6144.1 3242.54,6073.79C3161.97,6010.8 3029.4,5976.38 2844.83,5970.52L2844.83,5579.41C3051.37,5572.08 3194.93,5527.4 3275.49,5445.37C3345.81,5372.13 3380.96,5257.87 3380.96,5102.6L3380.96,4511.53C3380.96,4234.68 3458.6,4029.6 3613.87,3896.3C3692.98,3825.99 3786.73,3775.82 3895.12,3745.79C4003.52,3715.76 4151.47,3698.55 4338.97,3694.15L4338.97,4067.69C4129.5,4091.12 3994.73,4138.73 3934.68,4210.51C3880.48,4273.5 3853.38,4387.76 3853.38,4553.28L3853.38,5155.33C3853.38,5474.67 3704.69,5680.48 3407.33,5772.77C3561.14,5822.57 3673.93,5896.54 3745.71,5994.69C3817.49,6092.83 3853.38,6222.47 3853.38,6383.61L3853.38,7001.04C3853.38,7188.54 3890.73,7314.51 3965.44,7378.97C4025.86,7432.52 4139.07,7469.99 4305.07,7491.36L5335.19,7497.72L5849.62,6985.7C6133.94,6701.38 6447.86,6387.46 6547.66,6287.66C6700.84,6135.05 6734.5,6098.5 6761.19,6055.56C6811.67,5974.32 6827.34,5919.2 6827.34,5823.46C6827.34,5772.98 6824.44,5757.31 6809.93,5716.11C6800.65,5689.42 6787.88,5659.25 6780.92,5649.39C6774.53,5638.94 6765.25,5621.53 6760.03,5610.51C6754.81,5599.48 6728.69,5568.73 6702,5542.04C6661.39,5501.42 6643.98,5489.24 6598.14,5467.77C6538.37,5439.34 6505.3,5430.63 6439.15,5426.57C6370.68,5421.93 6317.3,5440.49 6207.63,5506.06C6178.04,5523.47 6141.48,5545.52 6126.4,5554.22C6088.1,5576.85 6028.91,5605.87 5994.68,5619.21C5950.58,5635.46 5854.84,5634.88 5810.74,5618.05C5774.77,5604.13 5684.25,5557.71 5661.04,5540.88C5652.91,5535.08 5624.48,5517.67 5597.21,5502C5467.23,5426.57 5399.35,5410.9 5305.93,5434.11C5265.89,5443.98 5262.41,5444.56 5209.02,5468.93C5113.86,5511.87 5038.43,5601.81 4997.81,5719.6C4983.31,5763.11 4980.99,5778.78 4980.99,5831C4980.99,5922.1 5001.88,5987.67 5055.26,6068.9C5071.51,6093.86 5168.99,6195.4 5341.32,6367.73C5485.22,6511.05 5603.01,6631.17 5603.01,6634.65C5603.01,6643.93 5351.77,6892.86 5341.9,6892.86C5332.04,6892.86 4824.9,6388.62 4785.44,6338.72C4726.26,6264.45 4668.81,6164.07 4649.66,6100.82C4617.17,5995.79 4602.66,5907.02 4606.73,5840.29C4612.53,5745.71 4621.81,5668.53 4630.52,5641.26C4635.16,5626.18 4643.86,5597.74 4649.08,5578.6C4659.53,5540.88 4659.53,5541.46 4690.28,5484.01C4701.89,5462.55 4719.29,5430.05 4729.16,5412.06C4739.02,5394.08 4757.59,5367.96 4770.36,5354.04C4782.54,5340.11 4802.27,5317.48 4813.3,5302.98C4836.5,5272.22 4858.55,5251.91 4891.63,5229.28C4904.39,5220.58 4924.12,5204.91 4934.57,5195.63C4945.59,5185.77 4972.86,5168.36 4995.49,5156.17C5018.7,5143.99 5042.49,5130.64 5048.88,5126.58C5058.74,5120.2 5095.88,5106.27 5188.14,5073.2C5254.28,5049.99 5456.21,5042.44 5524.68,5060.43C5599.53,5080.74 5736.47,5141.67 5797.98,5182.86C5814.22,5193.89 5844.98,5211.3 5867.03,5221.74C5905.9,5240.89 5905.9,5240.89 5927.37,5231.03C5938.98,5225.22 5972.05,5205.49 6000.48,5186.93C6061.41,5147.47 6143.81,5106.27 6196.03,5088.86C6216.34,5081.9 6237.81,5073.78 6244.19,5070.88C6272.62,5058.11 6319.62,5051.15 6397.95,5048.83C6475.13,5047.09 6511.68,5049.99 6586.53,5065.07C6621.93,5072.04 6746.1,5117.3 6769.31,5131.8C6780.34,5138.19 6803.55,5151.53 6820.95,5160.23C6837.78,5168.94 6874.34,5195.05 6902.19,5218.26C6930.04,5241.47 6957.89,5264.1 6964.28,5268.74C6970.66,5273.38 6984.59,5288.47 6995.03,5302.98C7006.05,5317.48 7017.66,5331.41 7021.14,5334.89C7032.75,5344.75 7071.04,5394.08 7071.04,5398.14C7071.04,5399.88 7077.43,5411.48 7084.39,5423.67C7115.14,5472.41 7147.06,5536.82 7158.66,5573.95C7183.61,5652.87 7186.51,5666.21 7189.41,5694.64C7191.15,5710.31 7195.22,5749.77 7199.28,5781.68C7207.98,5864.08 7199.28,5954.6 7169.68,6068.9C7155.18,6128.09 7118.62,6202.36 7065.24,6283.6C7033.33,6331.76 6976.46,6391.52 6607.42,6761.14C6326,7043.14 6185.58,7187.62 6184.42,7196.91C6183.26,7207.93 6208.79,7236.94 6319.62,7347.77C6395.05,7423.2 6462.49,7492.26 6469.46,7496.9C6469.81,7497.12 7440.71,7495.82 7440.71,7495.82Z" style="fill:white;"/>
        </g>
    </g>
</svg>
